<svg width="74" height="72" viewBox="0 0 74 72" fill="none" xmlns="http://www.w3.org/2000/svg">
<g filter="url(#filter0_d_11_35)">
<path d="M39.9055 29.3046L37.777 27.1905L37.777 27.1905L39.9055 29.3046ZM69 3.02348C68.9944 1.36664 67.6467 0.0280262 65.9899 0.0336112L38.99 0.124623C37.3332 0.130208 35.9946 1.47787 36.0002 3.13472C36.0058 4.79156 37.3534 6.13017 39.0103 6.12459L63.0101 6.04369L63.091 30.0436C63.0966 31.7004 64.4443 33.039 66.1011 33.0334C67.758 33.0278 69.0966 31.6802 69.091 30.0233L69 3.02348ZM4 61C4 62.6569 5.34315 64 7 64C8.65685 64 10 62.6569 10 61H4ZM8.64073 4.40284L10.5629 2.09954L8.64073 4.40284ZM38.5552 29.3677L40.4774 27.0644L40.4774 27.0644L38.5552 29.3677ZM42.0339 31.4188L68.1285 5.14775L63.8715 0.919436L37.777 27.1905L42.0339 31.4188ZM10 61V5.1706H4V61H10ZM6.71854 6.70614L36.6331 31.671L40.4774 27.0644L10.5629 2.09954L6.71854 6.70614ZM10 5.1706C10 6.86696 8.02092 7.79302 6.71854 6.70614L10.5629 2.09954C7.95815 -0.0742433 4 1.7779 4 5.1706H10ZM37.777 27.1905C38.5082 26.4544 39.6809 26.3996 40.4774 27.0644L36.633 31.671C38.2262 33.0006 40.5716 32.891 42.0339 31.4188L37.777 27.1905Z" fill="white"/>
<circle cx="21" cy="31" r="4" fill="white"/>
</g>
<defs>
<filter id="filter0_d_11_35" x="0" y="0.0335999" width="73.091" height="71.9664" filterUnits="userSpaceOnUse" color-interpolation-filters="sRGB">
<feFlood flood-opacity="0" result="BackgroundImageFix"/>
<feColorMatrix in="SourceAlpha" type="matrix" values="0 0 0 0 0 0 0 0 0 0 0 0 0 0 0 0 0 0 127 0" result="hardAlpha"/>
<feOffset dy="4"/>
<feGaussianBlur stdDeviation="2"/>
<feComposite in2="hardAlpha" operator="out"/>
<feColorMatrix type="matrix" values="0 0 0 0 0 0 0 0 0 0 0 0 0 0 0 0 0 0 0.25 0"/>
<feBlend mode="normal" in2="BackgroundImageFix" result="effect1_dropShadow_11_35"/>
<feBlend mode="normal" in="SourceGraphic" in2="effect1_dropShadow_11_35" result="shape"/>
</filter>
</defs>
</svg>
